<svg width="50" height="48" viewBox="0 0 50 48" fill="none" xmlns="http://www.w3.org/2000/svg">
<path d="M16.6634 4.80005C10.2317 4.80005 5 9.82717 5 16.0032V32.0032C5 38.1776 10.2366 43.2 16.6699 43.2H33.3366C39.7683 43.2 45 38.1729 45 31.9969V15.9969C45 9.82252 39.7634 4.80005 33.3301 4.80005H16.6634ZM36.6667 11.2C37.5867 11.2 38.3333 11.9168 38.3333 12.8C38.3333 13.6832 37.5867 14.4 36.6667 14.4C35.7467 14.4 35 13.6832 35 12.8C35 11.9168 35.7467 11.2 36.6667 11.2ZM25 14.4C30.515 14.4 35 18.7056 35 24C35 29.2944 30.515 33.6 25 33.6C19.485 33.6 15 29.2944 15 24C15 18.7056 19.485 14.4 25 14.4ZM25 17.6C23.2319 17.6 21.5362 18.2743 20.286 19.4746C19.0357 20.6748 18.3333 22.3027 18.3333 24C18.3333 25.6974 19.0357 27.3253 20.286 28.5255C21.5362 29.7258 23.2319 30.4 25 30.4C26.7681 30.4 28.4638 29.7258 29.714 28.5255C30.9643 27.3253 31.6667 25.6974 31.6667 24C31.6667 22.3027 30.9643 20.6748 29.714 19.4746C28.4638 18.2743 26.7681 17.6 25 17.6Z" fill="white"/>
</svg>
