<svg width="50" height="48" viewBox="0 0 50 48" fill="none" xmlns="http://www.w3.org/2000/svg">
<path d="M2.41533 33.4235C2.5185 33.4235 2.60583 33.342 2.62066 33.2273L3.1815 28.96L2.62233 24.5955C2.60566 24.4808 2.5185 24.3987 2.41533 24.3987C2.3095 24.3987 2.21933 24.4825 2.20533 24.5955L1.71516 28.96L2.20533 33.2259C2.21933 33.3404 2.3095 33.4235 2.41533 33.4235Z" fill="white"/>
<path d="M0.566167 31.8005C0.6675 31.8005 0.749667 31.7248 0.7645 31.6117L1.19917 28.9598L0.7645 26.2584C0.7495 26.1488 0.6675 26.0696 0.566167 26.0696C0.460333 26.0696 0.378333 26.1488 0.363333 26.26L0 28.96L0.363333 31.611C0.378333 31.7232 0.460333 31.8005 0.566167 31.8005Z" fill="white"/>
<path d="M4.627 23.783C4.61367 23.6442 4.50783 23.543 4.3765 23.543C4.24617 23.543 4.14017 23.6442 4.128 23.783L3.6595 28.9598L4.128 33.9476C4.14017 34.0855 4.24617 34.1855 4.3765 34.1855C4.50783 34.1855 4.61367 34.0855 4.627 33.9476L5.157 28.9598L4.627 23.783Z" fill="white"/>
<path d="M6.35867 34.3866C6.51234 34.3866 6.63667 34.2652 6.65167 34.1064L7.1525 28.9615L6.65167 23.6402C6.63667 23.4804 6.51234 23.3604 6.35867 23.3604C6.20284 23.3604 6.07667 23.4805 6.066 23.641L5.62334 28.9615L6.066 34.1064C6.07667 34.2653 6.20284 34.3866 6.35867 34.3866Z" fill="white"/>
<path d="M8.3545 34.4702C8.5335 34.4702 8.67716 34.3326 8.692 34.1484L8.69033 34.1497L9.162 28.9615L8.69033 24.0244C8.677 23.8433 8.5335 23.7036 8.35433 23.7036C8.17266 23.7036 8.02983 23.8433 8.019 24.0259L7.602 28.9617L8.019 34.1486C8.03 34.3326 8.17283 34.4702 8.3545 34.4702Z" fill="white"/>
<path d="M11.1887 28.9629L10.7462 20.9353C10.7338 20.7318 10.5687 20.5696 10.366 20.5696C10.1648 20.5696 10.0002 20.7317 9.98783 20.9353L9.59617 28.9629L9.98783 34.1497C10.0002 34.3542 10.165 34.5142 10.366 34.5142C10.5688 34.5142 10.7338 34.3542 10.7462 34.1497V34.1512L11.1887 28.9629Z" fill="white"/>
<path d="M12.3977 34.5225C12.6208 34.5225 12.806 34.3447 12.8165 34.1179V34.1212L13.2302 28.9639L12.8165 19.099C12.806 18.8721 12.6208 18.6943 12.3977 18.6943C12.1693 18.6943 11.9858 18.8721 11.9735 19.099L11.6093 28.9639L11.9752 34.1195C11.9858 34.3447 12.1693 34.5225 12.3977 34.5225Z" fill="white"/>
<path d="M14.4408 17.8296C14.1895 17.8296 13.9867 18.0277 13.9763 18.2774L13.6375 28.9656L13.9763 34.067C13.9868 34.3155 14.1895 34.5123 14.4408 34.5123C14.6915 34.5123 14.8958 34.3171 14.9047 34.0662V34.0688L15.2892 28.9656L14.9047 18.2774C14.8958 18.0261 14.6913 17.8296 14.4408 17.8296Z" fill="white"/>
<path d="M16.5017 34.5226C16.7777 34.5226 16.9975 34.3089 17.0078 34.0337V34.0367L17.3633 28.9658L17.0078 17.9186C16.9973 17.6444 16.7777 17.4297 16.5017 17.4297C16.224 17.4297 16.0008 17.6444 15.9965 17.9186L15.6772 28.9658L15.9965 34.0367C16.0008 34.3089 16.224 34.5226 16.5017 34.5226Z" fill="white"/>
<path d="M18.5795 34.5175C18.8773 34.5175 19.119 34.2835 19.128 33.9867V33.9913L19.4552 28.9667L19.128 18.2004C19.119 17.9038 18.8773 17.6707 18.5795 17.6707C18.2795 17.6707 18.0378 17.9036 18.029 18.2004L17.7415 28.9667L18.0308 33.9889C18.0378 34.2835 18.2795 34.5175 18.5795 34.5175Z" fill="white"/>
<path d="M21.5598 28.9666L21.2637 18.5928C21.2565 18.2728 20.9955 18.0215 20.6718 18.0215C20.3473 18.0215 20.0862 18.2728 20.0793 18.5949L19.8137 28.9666L20.0793 33.9583C20.0862 34.2757 20.3472 34.5272 20.6718 34.5272C20.9953 34.5272 21.2565 34.2757 21.2637 33.9536V33.9583L21.5598 28.9666Z" fill="white"/>
<path d="M22.7803 34.5364C23.1243 34.5364 23.4092 34.2617 23.4145 33.924V33.9267L23.6833 28.9692L23.4145 16.6248C23.4093 16.2857 23.1245 16.0115 22.7803 16.0115C22.4365 16.0115 22.1525 16.287 22.1455 16.6265L21.9065 28.9643L22.1455 33.9268C22.1525 34.2617 22.4365 34.5364 22.7803 34.5364Z" fill="white"/>
<path d="M24.8818 14.8503C24.5103 14.8503 24.209 15.1462 24.2028 15.5068L23.925 28.971L24.2045 33.8551C24.209 34.2111 24.5105 34.506 24.8818 34.506C25.2477 34.506 25.5547 34.211 25.5563 33.8492V33.8551L25.8597 28.971L25.5563 15.5068C25.5547 15.1449 25.2477 14.8503 24.8818 14.8503Z" fill="white"/>
<path d="M26.8033 34.5412C26.8183 34.5424 43.7405 34.5501 43.8492 34.5501C47.2467 34.5501 49.9998 31.8746 49.9998 28.573C49.9998 25.2732 47.2465 22.5972 43.8492 22.5972C43.006 22.5972 42.2027 22.7626 41.47 23.0623C40.983 17.6749 36.3342 13.45 30.663 13.45C29.2767 13.45 27.9248 13.7159 26.7308 14.165C26.2662 14.3394 26.1418 14.5192 26.1382 14.8677V33.834C26.1435 34.2004 26.4345 34.5048 26.8033 34.5412Z" fill="white"/>
</svg>
