<svg width="50" height="48" viewBox="0 0 50 48" fill="none" xmlns="http://www.w3.org/2000/svg">
<path d="M48.8666 8.88597C48.0811 9.22042 47.2736 9.50269 46.4484 9.73185C47.4253 8.67121 48.1702 7.42321 48.6249 6.05753C48.7268 5.75141 48.6211 5.41634 48.359 5.21613C48.0973 5.01577 47.7336 4.99177 47.4453 5.15575C45.6929 6.15353 43.8023 6.87059 41.8199 7.28989C39.8229 5.41665 37.1107 4.35059 34.3068 4.35059C28.3882 4.35059 23.5731 8.97299 23.5731 14.6546C23.5731 15.1021 23.6026 15.5471 23.661 15.9859C16.3166 15.3669 9.48873 11.9015 4.80002 6.38006C4.63292 6.18326 4.3755 6.07719 4.11196 6.09748C3.84825 6.1173 3.61131 6.26006 3.47809 6.47946C2.52712 8.04597 2.02438 9.83761 2.02438 11.6605C2.02438 14.1434 2.94776 16.4991 4.57889 18.3398C4.08292 18.1749 3.60163 17.9688 3.14228 17.724C2.89567 17.5922 2.5947 17.5943 2.3497 17.7291C2.10454 17.864 1.95083 18.112 1.94438 18.3832C1.94325 18.4288 1.94325 18.4745 1.94325 18.5208C1.94325 22.2269 4.02099 25.5635 7.1976 27.3821C6.9247 27.3559 6.65196 27.318 6.38099 27.2683C6.10163 27.217 5.81438 27.311 5.62599 27.5155C5.43728 27.7199 5.37486 28.0048 5.4618 28.265C6.6376 31.7891 9.66486 34.3812 13.3245 35.1715C10.2892 36.9966 6.81809 37.9526 3.17421 37.9526C2.41389 37.9526 1.64921 37.9097 0.900828 37.8247C0.529053 37.7823 0.173569 37.993 0.0469566 38.3324C-0.0796563 38.672 0.0545372 39.0506 0.370828 39.2452C5.05196 42.1266 10.4647 43.6496 16.0236 43.6496C26.9516 43.6496 33.7879 38.7025 37.5984 34.5523C42.35 29.3775 45.0752 22.5279 45.0752 15.76C45.0752 15.4773 45.0707 15.1918 45.0616 14.9072C46.9363 13.5513 48.5503 11.9103 49.8637 10.0242C50.0632 9.73773 50.0416 9.35915 49.8105 9.09546C49.5797 8.83162 49.195 8.7463 48.8666 8.88597Z" fill="white"/>
</svg>
