<svg width="537" height="48" viewBox="0 0 537 48" fill="none" xmlns="http://www.w3.org/2000/svg">
<path d="M0.496 1.688C1.47733 1.73067 2.736 1.77333 4.272 1.816C5.85067 1.85866 7.408 1.88 8.944 1.88C10.992 1.88 12.9333 1.85866 14.768 1.816C16.6453 1.77333 17.968 1.752 18.736 1.752C24.1547 1.752 28.208 2.79733 30.896 4.888C33.584 6.936 34.928 9.60266 34.928 12.888C34.928 14.2107 34.6507 15.6187 34.096 17.112C33.584 18.5627 32.6667 19.928 31.344 21.208C30.0213 22.4453 28.2293 23.4693 25.968 24.28C23.7067 25.0907 20.8267 25.496 17.328 25.496H11.184V24.216H16.688C19.5467 24.216 21.7227 23.7467 23.216 22.808C24.752 21.8267 25.776 20.5467 26.288 18.968C26.8427 17.3467 27.12 15.5547 27.12 13.592C27.12 10.2213 26.3947 7.61867 24.944 5.784C23.4933 3.90666 20.976 2.968 17.392 2.968C15.5573 2.968 14.3413 3.33067 13.744 4.056C13.1893 4.78133 12.912 6.25333 12.912 8.472V40.216C12.912 41.752 13.04 42.904 13.296 43.672C13.552 44.44 14.0427 44.952 14.768 45.208C15.4933 45.464 16.56 45.6347 17.968 45.72V47C16.944 46.9147 15.6427 46.872 14.064 46.872C12.528 46.8293 10.9493 46.808 9.328 46.808C7.536 46.808 5.85067 46.8293 4.272 46.872C2.736 46.872 1.47733 46.9147 0.496 47V45.72C1.94667 45.6347 3.03467 45.464 3.76 45.208C4.48533 44.952 4.95467 44.44 5.168 43.672C5.424 42.904 5.552 41.752 5.552 40.216V8.472C5.552 6.89333 5.424 5.74133 5.168 5.016C4.95467 4.248 4.464 3.736 3.696 3.48C2.97067 3.18133 1.904 3.01066 0.496 2.968V1.688ZM11.312 24.408C13.488 24.4933 15.2373 24.6 16.56 24.728C17.8827 24.8133 18.992 24.8987 19.888 24.984C20.784 25.0693 21.616 25.176 22.384 25.304C25.584 25.7307 27.9093 26.584 29.36 27.864C30.8533 29.144 31.8773 31.1067 32.432 33.752L34.032 40.28C34.416 42.1147 34.8213 43.416 35.248 44.184C35.7173 44.952 36.4 45.336 37.296 45.336C37.9787 45.2933 38.5333 45.1013 38.96 44.76C39.4293 44.376 39.92 43.864 40.432 43.224L41.328 43.928C40.3467 45.2507 39.3227 46.2533 38.256 46.936C37.1893 47.576 35.76 47.896 33.968 47.896C32.1333 47.896 30.5547 47.4267 29.232 46.488C27.952 45.5067 27.0347 43.672 26.48 40.984L25.2 34.584C24.816 32.7493 24.3893 31.1707 23.92 29.848C23.4507 28.4827 22.7893 27.416 21.936 26.648C21.1253 25.88 19.9307 25.496 18.352 25.496H11.44L11.312 24.408ZM64.7575 0.791996C68.9388 0.791996 72.6082 1.70933 75.7655 3.544C78.9655 5.37866 81.4402 8.024 83.1895 11.48C84.9388 14.8933 85.8135 19.0533 85.8135 23.96C85.8135 28.7387 84.9175 32.92 83.1255 36.504C81.3335 40.088 78.8375 42.8827 75.6375 44.888C72.4375 46.8933 68.7895 47.896 64.6935 47.896C60.4695 47.896 56.7788 46.9787 53.6215 45.144C50.4642 43.3093 48.0108 40.664 46.2615 37.208C44.5122 33.752 43.6375 29.592 43.6375 24.728C43.6375 19.9493 44.5335 15.768 46.3255 12.184C48.1602 8.6 50.6562 5.80533 53.8135 3.8C56.9708 1.79466 60.6188 0.791996 64.7575 0.791996ZM64.5015 1.944C61.8562 1.944 59.5522 2.904 57.5895 4.824C55.6268 6.744 54.1122 9.38933 53.0455 12.76C51.9788 16.1307 51.4455 20.0347 51.4455 24.472C51.4455 28.9947 52.0428 32.9413 53.2375 36.312C54.4322 39.64 56.0535 42.2213 58.1015 44.056C60.1495 45.848 62.4322 46.744 64.9495 46.744C67.5948 46.744 69.8775 45.784 71.7975 43.864C73.7602 41.944 75.2748 39.2987 76.3415 35.928C77.4508 32.5147 78.0055 28.6107 78.0055 24.216C78.0055 19.6507 77.3868 15.704 76.1495 12.376C74.9548 9.048 73.3335 6.488 71.2855 4.696C69.2802 2.86133 67.0188 1.944 64.5015 1.944ZM113.642 0.791996C116.458 0.791996 118.74 1.21866 120.49 2.072C122.239 2.88266 123.839 3.84267 125.29 4.952C125.844 5.37867 126.271 5.592 126.569 5.592C127.38 5.592 127.914 4.29067 128.17 1.688H129.642C129.556 3.30933 129.492 5.272 129.45 7.576C129.407 9.83733 129.386 12.8667 129.386 16.664H127.914C127.615 14.616 127.21 12.7173 126.698 10.968C126.228 9.21866 125.396 7.72533 124.201 6.488C123.05 5.12267 121.535 4.056 119.658 3.288C117.823 2.52 115.946 2.136 114.026 2.136C111.807 2.136 109.844 2.69066 108.138 3.8C106.431 4.86666 104.98 6.40266 103.786 8.408C102.634 10.4133 101.738 12.7813 101.098 15.512C100.5 18.2 100.202 21.1653 100.202 24.408C100.202 32.088 101.375 37.72 103.722 41.304C106.111 44.8453 109.695 46.616 114.474 46.616C115.839 46.616 117.012 46.424 117.994 46.04C119.018 45.656 119.828 45.272 120.426 44.888C121.151 44.376 121.62 43.8853 121.833 43.416C122.047 42.904 122.154 42.2427 122.154 41.432V35.224C122.154 33.3893 121.983 32.0453 121.642 31.192C121.343 30.296 120.724 29.6987 119.786 29.4C118.847 29.0587 117.482 28.8667 115.69 28.824V27.544C116.5 27.5867 117.46 27.6293 118.57 27.672C119.679 27.672 120.831 27.6933 122.026 27.736C123.263 27.736 124.372 27.736 125.354 27.736C126.89 27.736 128.276 27.7147 129.514 27.672C130.794 27.6293 131.839 27.5867 132.65 27.544V28.824C131.327 28.9093 130.474 29.2507 130.09 29.848C129.706 30.4453 129.514 31.9387 129.514 34.328V47H128.234C128.191 46.2747 128.02 45.4853 127.722 44.632C127.466 43.7787 127.06 43.352 126.506 43.352C126.207 43.352 125.887 43.416 125.546 43.544C125.247 43.672 124.714 43.992 123.946 44.504C122.452 45.528 120.895 46.36 119.274 47C117.652 47.5973 115.818 47.896 113.77 47.896C106.858 47.896 101.524 45.8907 97.7695 41.88C94.0148 37.8267 92.1375 32.216 92.1375 25.048C92.1375 20.0987 93.0548 15.8107 94.8895 12.184C96.7668 8.55733 99.3055 5.76267 102.506 3.8C105.748 1.79466 109.46 0.791996 113.642 0.791996ZM169.825 1.688C169.654 3.30933 169.526 4.888 169.441 6.424C169.398 7.91733 169.377 9.06933 169.377 9.88C169.377 10.6907 169.398 11.4587 169.441 12.184C169.484 12.9093 169.526 13.5067 169.569 13.976H168.097C167.798 11.2453 167.329 9.09066 166.689 7.512C166.092 5.93333 165.174 4.824 163.937 4.184C162.742 3.50133 161.057 3.16 158.881 3.16H154.465C153.1 3.16 152.054 3.288 151.329 3.544C150.646 3.75733 150.177 4.22667 149.921 4.952C149.665 5.63467 149.537 6.72267 149.537 8.216V40.472C149.537 41.9227 149.665 43.0107 149.921 43.736C150.177 44.4613 150.646 44.952 151.329 45.208C152.054 45.4213 153.1 45.528 154.465 45.528H158.625C161.057 45.528 162.977 45.144 164.385 44.376C165.836 43.608 166.924 42.3493 167.649 40.6C168.417 38.8507 168.993 36.4613 169.377 33.432H170.849C170.721 34.6693 170.657 36.2907 170.657 38.296C170.657 39.1493 170.678 40.3867 170.721 42.008C170.806 43.6293 170.934 45.2933 171.105 47C168.929 46.9147 166.476 46.872 163.745 46.872C161.014 46.8293 158.582 46.808 156.449 46.808C155.126 46.808 153.356 46.808 151.137 46.808C148.961 46.808 146.614 46.8293 144.097 46.872C141.622 46.872 139.297 46.9147 137.121 47V45.72C138.572 45.6347 139.66 45.464 140.385 45.208C141.11 44.952 141.58 44.44 141.793 43.672C142.049 42.904 142.177 41.752 142.177 40.216V8.472C142.177 6.89333 142.049 5.74133 141.793 5.016C141.58 4.248 141.089 3.736 140.321 3.48C139.596 3.18133 138.529 3.01066 137.121 2.968V1.688C139.297 1.73067 141.622 1.77333 144.097 1.816C146.614 1.85866 148.961 1.88 151.137 1.88C153.356 1.88 155.126 1.88 156.449 1.88C158.412 1.88 160.63 1.88 163.105 1.88C165.622 1.83733 167.862 1.77333 169.825 1.688ZM159.201 23.576C159.201 23.576 159.201 23.7893 159.201 24.216C159.201 24.6427 159.201 24.856 159.201 24.856H147.617C147.617 24.856 147.617 24.6427 147.617 24.216C147.617 23.7893 147.617 23.576 147.617 23.576H159.201ZM161.057 15.128C160.886 17.56 160.801 19.416 160.801 20.696C160.844 21.976 160.865 23.1493 160.865 24.216C160.865 25.2827 160.886 26.456 160.929 27.736C160.972 29.016 161.078 30.872 161.249 33.304H159.777C159.564 31.896 159.286 30.552 158.945 29.272C158.604 27.9493 157.985 26.8827 157.089 26.072C156.236 25.2613 154.892 24.856 153.057 24.856V23.576C154.892 23.576 156.214 23.1067 157.025 22.168C157.878 21.1867 158.454 20.0347 158.753 18.712C159.094 17.3893 159.372 16.1947 159.585 15.128H161.057ZM176.621 1.688C177.602 1.73067 178.861 1.77333 180.397 1.816C181.976 1.85866 183.533 1.88 185.069 1.88C187.117 1.88 189.058 1.85866 190.893 1.816C192.77 1.77333 194.093 1.752 194.861 1.752C200.28 1.752 204.333 2.79733 207.021 4.888C209.709 6.936 211.053 9.60266 211.053 12.888C211.053 14.2107 210.776 15.6187 210.221 17.112C209.709 18.5627 208.792 19.928 207.469 21.208C206.146 22.4453 204.354 23.4693 202.093 24.28C199.832 25.0907 196.952 25.496 193.453 25.496H187.309V24.216H192.813C195.672 24.216 197.848 23.7467 199.341 22.808C200.877 21.8267 201.901 20.5467 202.413 18.968C202.968 17.3467 203.245 15.5547 203.245 13.592C203.245 10.2213 202.52 7.61867 201.069 5.784C199.618 3.90666 197.101 2.968 193.517 2.968C191.682 2.968 190.466 3.33067 189.869 4.056C189.314 4.78133 189.037 6.25333 189.037 8.472V40.216C189.037 41.752 189.165 42.904 189.421 43.672C189.677 44.44 190.168 44.952 190.893 45.208C191.618 45.464 192.685 45.6347 194.093 45.72V47C193.069 46.9147 191.768 46.872 190.189 46.872C188.653 46.8293 187.074 46.808 185.453 46.808C183.661 46.808 181.976 46.8293 180.397 46.872C178.861 46.872 177.602 46.9147 176.621 47V45.72C178.072 45.6347 179.16 45.464 179.885 45.208C180.61 44.952 181.08 44.44 181.293 43.672C181.549 42.904 181.677 41.752 181.677 40.216V8.472C181.677 6.89333 181.549 5.74133 181.293 5.016C181.08 4.248 180.589 3.736 179.821 3.48C179.096 3.18133 178.029 3.01066 176.621 2.968V1.688ZM187.437 24.408C189.613 24.4933 191.362 24.6 192.685 24.728C194.008 24.8133 195.117 24.8987 196.013 24.984C196.909 25.0693 197.741 25.176 198.509 25.304C201.709 25.7307 204.034 26.584 205.485 27.864C206.978 29.144 208.002 31.1067 208.557 33.752L210.157 40.28C210.541 42.1147 210.946 43.416 211.373 44.184C211.842 44.952 212.525 45.336 213.421 45.336C214.104 45.2933 214.658 45.1013 215.085 44.76C215.554 44.376 216.045 43.864 216.557 43.224L217.453 43.928C216.472 45.2507 215.448 46.2533 214.381 46.936C213.314 47.576 211.885 47.896 210.093 47.896C208.258 47.896 206.68 47.4267 205.357 46.488C204.077 45.5067 203.16 43.672 202.605 40.984L201.325 34.584C200.941 32.7493 200.514 31.1707 200.045 29.848C199.576 28.4827 198.914 27.416 198.061 26.648C197.25 25.88 196.056 25.496 194.477 25.496H187.565L187.437 24.408ZM236.531 1.688V2.968C235.123 3.01066 234.056 3.18133 233.331 3.48C232.605 3.736 232.115 4.248 231.859 5.016C231.603 5.74133 231.475 6.89333 231.475 8.472V40.216C231.475 41.752 231.603 42.904 231.859 43.672C232.115 44.44 232.605 44.952 233.331 45.208C234.056 45.464 235.123 45.6347 236.531 45.72V47C235.507 46.9147 234.205 46.872 232.627 46.872C231.091 46.8293 229.512 46.808 227.891 46.808C226.099 46.808 224.413 46.8293 222.835 46.872C221.299 46.872 220.04 46.9147 219.059 47V45.72C220.509 45.6347 221.597 45.464 222.323 45.208C223.048 44.952 223.517 44.44 223.731 43.672C223.987 42.904 224.115 41.752 224.115 40.216V8.472C224.115 6.89333 223.987 5.74133 223.731 5.016C223.517 4.248 223.027 3.736 222.259 3.48C221.533 3.18133 220.467 3.01066 219.059 2.968V1.688C220.04 1.73067 221.299 1.77333 222.835 1.816C224.413 1.85866 226.099 1.88 227.891 1.88C229.512 1.88 231.091 1.85866 232.627 1.816C234.205 1.77333 235.507 1.73067 236.531 1.688ZM262.82 0.791996C267.001 0.791996 270.671 1.70933 273.828 3.544C277.028 5.37866 279.503 8.024 281.252 11.48C283.001 14.8933 283.876 19.0533 283.876 23.96C283.876 28.7387 282.98 32.92 281.188 36.504C279.396 40.088 276.9 42.8827 273.7 44.888C270.5 46.8933 266.852 47.896 262.756 47.896C258.532 47.896 254.841 46.9787 251.684 45.144C248.527 43.3093 246.073 40.664 244.324 37.208C242.575 33.752 241.7 29.592 241.7 24.728C241.7 19.9493 242.596 15.768 244.388 12.184C246.223 8.6 248.719 5.80533 251.876 3.8C255.033 1.79466 258.681 0.791996 262.82 0.791996ZM262.564 1.944C259.919 1.944 257.615 2.904 255.652 4.824C253.689 6.744 252.175 9.38933 251.108 12.76C250.041 16.1307 249.508 20.0347 249.508 24.472C249.508 28.9947 250.105 32.9413 251.3 36.312C252.495 39.64 254.116 42.2213 256.164 44.056C258.212 45.848 260.495 46.744 263.012 46.744C265.657 46.744 267.94 45.784 269.86 43.864C271.823 41.944 273.337 39.2987 274.404 35.928C275.513 32.5147 276.068 28.6107 276.068 24.216C276.068 19.6507 275.449 15.704 274.212 12.376C273.017 9.048 271.396 6.488 269.348 4.696C267.343 2.86133 265.081 1.944 262.564 1.944ZM319.585 0.919998C321.846 0.919998 323.574 1.176 324.769 1.688C325.964 2.2 327.009 2.75466 327.905 3.352C328.417 3.65067 328.822 3.88533 329.121 4.056C329.462 4.184 329.782 4.248 330.081 4.248C330.764 4.248 331.233 3.30933 331.489 1.432H332.961C332.918 2.2 332.854 3.11733 332.769 4.184C332.726 5.208 332.684 6.57333 332.641 8.28C332.641 9.98667 332.641 12.2267 332.641 15H331.169C331.041 12.9093 330.572 10.8827 329.761 8.92C328.993 6.95733 327.841 5.35733 326.305 4.12C324.812 2.88266 322.892 2.264 320.545 2.264C318.369 2.264 316.556 2.92533 315.105 4.248C313.697 5.528 312.993 7.23467 312.993 9.368C312.993 11.2453 313.462 12.824 314.401 14.104C315.34 15.3413 316.62 16.5147 318.241 17.624C319.905 18.6907 321.782 19.8853 323.873 21.208C326.006 22.5733 327.926 23.9387 329.633 25.304C331.34 26.6267 332.684 28.0987 333.665 29.72C334.646 31.3413 335.137 33.304 335.137 35.608C335.137 38.3813 334.476 40.6853 333.153 42.52C331.873 44.312 330.145 45.656 327.969 46.552C325.793 47.448 323.404 47.896 320.801 47.896C318.412 47.896 316.513 47.64 315.105 47.128C313.697 46.616 312.502 46.0827 311.521 45.528C310.582 44.9307 309.857 44.632 309.345 44.632C308.662 44.632 308.193 45.5707 307.937 47.448H306.465C306.55 46.5093 306.593 45.4213 306.593 44.184C306.636 42.904 306.657 41.24 306.657 39.192C306.7 37.144 306.721 34.5627 306.721 31.448H308.193C308.364 34.0933 308.833 36.568 309.601 38.872C310.412 41.176 311.628 43.032 313.249 44.44C314.913 45.8053 317.11 46.488 319.841 46.488C321.974 46.488 323.873 45.848 325.537 44.568C327.201 43.2453 328.033 41.1973 328.033 38.424C328.033 35.8213 327.116 33.6667 325.281 31.96C323.489 30.2107 321.121 28.44 318.177 26.648C316.172 25.368 314.294 24.088 312.545 22.808C310.796 21.528 309.388 20.0347 308.321 18.328C307.297 16.6213 306.785 14.5947 306.785 12.248C306.785 9.64533 307.382 7.512 308.577 5.848C309.814 4.184 311.393 2.94666 313.313 2.136C315.276 1.32533 317.366 0.919998 319.585 0.919998ZM379.085 1.688V2.968C377.72 3.18133 376.354 3.672 374.989 4.44C373.666 5.16533 372.322 6.38133 370.957 8.088L358.669 23.448L360.845 19.544L376.205 41.816C376.888 42.84 377.613 43.6507 378.381 44.248C379.192 44.8453 380.216 45.336 381.453 45.72V47C380.301 46.9147 378.914 46.872 377.293 46.872C375.672 46.8293 374.242 46.808 373.005 46.808C372.237 46.808 371.277 46.8293 370.125 46.872C369.016 46.872 367.608 46.9147 365.901 47V45.72C367.48 45.6347 368.44 45.3787 368.781 44.952C369.165 44.5253 369.016 43.8213 368.333 42.84L359.053 28.44C358.285 27.2453 357.602 26.3493 357.005 25.752C356.408 25.112 355.789 24.7067 355.149 24.536C354.509 24.3227 353.72 24.1947 352.781 24.152V22.808C354.573 22.7653 356.109 22.36 357.389 21.592C358.712 20.824 359.949 19.7787 361.101 18.456L366.413 11.736C367.906 9.90133 368.866 8.344 369.293 7.064C369.72 5.74133 369.613 4.73867 368.973 4.056C368.333 3.37333 367.138 3.01066 365.389 2.968V1.688C366.712 1.73067 368.034 1.77333 369.357 1.816C370.722 1.85866 372.088 1.88 373.453 1.88C375.842 1.88 377.72 1.816 379.085 1.688ZM358.093 1.688V2.968C356.685 3.01066 355.618 3.18133 354.893 3.48C354.168 3.736 353.677 4.248 353.421 5.016C353.165 5.74133 353.037 6.89333 353.037 8.472V40.216C353.037 41.752 353.165 42.904 353.421 43.672C353.677 44.44 354.168 44.952 354.893 45.208C355.618 45.464 356.685 45.6347 358.093 45.72V47C357.069 46.9147 355.768 46.872 354.189 46.872C352.653 46.8293 351.074 46.808 349.453 46.808C347.661 46.808 345.976 46.8293 344.397 46.872C342.861 46.872 341.602 46.9147 340.621 47V45.72C342.072 45.6347 343.16 45.464 343.885 45.208C344.61 44.952 345.08 44.44 345.293 43.672C345.549 42.904 345.677 41.752 345.677 40.216V8.472C345.677 6.89333 345.549 5.74133 345.293 5.016C345.08 4.248 344.589 3.736 343.821 3.48C343.096 3.18133 342.029 3.01066 340.621 2.968V1.688C341.602 1.73067 342.861 1.77333 344.397 1.816C345.976 1.85866 347.661 1.88 349.453 1.88C351.074 1.88 352.653 1.85866 354.189 1.816C355.768 1.77333 357.069 1.73067 358.093 1.688ZM419.585 1.688V2.968C418.731 3.18133 417.857 3.77866 416.961 4.76C416.107 5.69867 415.147 7.192 414.081 9.24L401.473 34.264H399.745L384.769 6.616C383.915 5.08 383.19 4.09866 382.593 3.672C382.038 3.24533 381.526 3.032 381.056 3.032V1.688C381.995 1.73067 382.977 1.77333 384.001 1.816C385.025 1.85866 386.134 1.88 387.329 1.88C388.865 1.88 390.529 1.88 392.321 1.88C394.113 1.83733 395.777 1.77333 397.312 1.688V3.032C396.246 3.032 395.286 3.13866 394.433 3.352C393.622 3.56533 393.067 3.992 392.769 4.632C392.513 5.22933 392.683 6.104 393.281 7.256L403.841 27.544L402.817 28.632L410.689 12.952C412.011 10.3493 412.673 8.344 412.673 6.936C412.715 5.48533 412.246 4.48266 411.265 3.928C410.326 3.33066 408.961 3.01066 407.169 2.968V1.688C408.491 1.73067 409.793 1.77333 411.073 1.816C412.353 1.85866 413.569 1.88 414.721 1.88C415.787 1.88 416.705 1.85866 417.472 1.816C418.241 1.77333 418.945 1.73067 419.585 1.688ZM404.865 26.392V40.216C404.865 41.752 404.993 42.904 405.249 43.672C405.505 44.44 405.995 44.952 406.721 45.208C407.446 45.464 408.513 45.6347 409.921 45.72V47C408.897 46.9147 407.595 46.872 406.017 46.872C404.438 46.8293 402.838 46.808 401.217 46.808C399.467 46.808 397.803 46.8293 396.225 46.872C394.646 46.872 393.387 46.9147 392.449 47V45.72C393.899 45.6347 394.987 45.464 395.713 45.208C396.438 44.952 396.907 44.44 397.121 43.672C397.377 42.904 397.505 41.752 397.505 40.216V27.096L401.665 31.064L404.865 26.392ZM439.909 1.688V2.968C438.458 3.01066 437.349 3.18133 436.581 3.48C435.855 3.736 435.365 4.248 435.109 5.016C434.853 5.74133 434.725 6.89333 434.725 8.472V40.472C434.725 41.9227 434.831 43.0107 435.045 43.736C435.301 44.4613 435.77 44.952 436.453 45.208C437.178 45.4213 438.202 45.528 439.525 45.528H443.685C446.159 45.528 448.122 45.08 449.573 44.184C451.023 43.2453 452.133 41.8373 452.901 39.96C453.669 38.0827 454.223 35.6933 454.565 32.792H456.037C455.909 34.1573 455.845 35.9493 455.845 38.168C455.845 39.0213 455.866 40.28 455.909 41.944C455.994 43.5653 456.122 45.2507 456.293 47C454.117 46.9147 451.663 46.872 448.933 46.872C446.202 46.8293 443.77 46.808 441.637 46.808C440.314 46.808 438.543 46.808 436.325 46.808C434.149 46.808 431.802 46.8293 429.285 46.872C426.81 46.872 424.485 46.9147 422.309 47V45.72C423.759 45.6347 424.847 45.464 425.573 45.208C426.298 44.952 426.767 44.44 426.981 43.672C427.237 42.904 427.365 41.752 427.365 40.216V8.472C427.365 6.89333 427.237 5.74133 426.981 5.016C426.767 4.248 426.277 3.736 425.509 3.48C424.783 3.18133 423.717 3.01066 422.309 2.968V1.688C423.29 1.73067 424.549 1.77333 426.085 1.816C427.663 1.85866 429.349 1.88 431.141 1.88C432.762 1.88 434.362 1.85866 435.941 1.816C437.562 1.77333 438.885 1.73067 439.909 1.688ZM479.57 1.432L495.186 41.624C495.783 43.2027 496.466 44.2693 497.234 44.824C498.044 45.3787 498.791 45.6773 499.474 45.72V47C498.45 46.9147 497.234 46.872 495.826 46.872C494.46 46.8293 493.074 46.808 491.666 46.808C489.874 46.808 488.21 46.8293 486.674 46.872C485.138 46.872 483.9 46.9147 482.962 47V45.72C485.138 45.6347 486.503 45.272 487.058 44.632C487.655 43.9493 487.527 42.52 486.674 40.344L475.154 9.24L476.178 8.088L465.554 35.864C464.53 38.424 464.039 40.408 464.082 41.816C464.124 43.224 464.615 44.2267 465.554 44.824C466.535 45.3787 467.922 45.6773 469.714 45.72V47C468.434 46.9147 467.132 46.872 465.81 46.872C464.53 46.8293 463.314 46.808 462.161 46.808C461.138 46.808 460.22 46.8293 459.41 46.872C458.642 46.872 457.938 46.9147 457.297 47V45.72C458.194 45.5067 459.09 44.9733 459.986 44.12C460.882 43.2667 461.735 41.816 462.546 39.768L477.394 1.432C477.735 1.432 478.098 1.432 478.482 1.432C478.866 1.432 479.228 1.432 479.57 1.432ZM486.29 28.568V29.848H467.218L467.858 28.568H486.29ZM500.246 1.688C501.227 1.73067 502.486 1.77333 504.022 1.816C505.601 1.85866 507.158 1.88 508.694 1.88C510.742 1.88 512.683 1.85866 514.518 1.816C516.395 1.77333 517.718 1.752 518.486 1.752C523.265 1.752 526.827 2.69066 529.174 4.568C531.563 6.44533 532.758 8.856 532.758 11.8C532.758 13.2933 532.395 14.7867 531.67 16.28C530.987 17.7307 529.857 19.0533 528.278 20.248C526.699 21.4 524.609 22.3173 522.006 23V23.128C525.59 23.512 528.406 24.28 530.454 25.432C532.502 26.584 533.953 27.9707 534.806 29.592C535.659 31.1707 536.086 32.8347 536.086 34.584C536.086 38.3387 534.657 41.3467 531.798 43.608C528.982 45.8693 525.035 47 519.958 47C519.019 47 517.59 46.9787 515.67 46.936C513.793 46.8507 511.51 46.808 508.822 46.808C507.201 46.808 505.601 46.8293 504.022 46.872C502.486 46.872 501.227 46.9147 500.246 47V45.72C501.697 45.6347 502.785 45.464 503.51 45.208C504.235 44.952 504.705 44.44 504.918 43.672C505.174 42.904 505.302 41.752 505.302 40.216V8.472C505.302 6.89333 505.174 5.74133 504.918 5.016C504.705 4.248 504.214 3.736 503.446 3.48C502.721 3.18133 501.654 3.01066 500.246 2.968V1.688ZM517.142 2.968C515.307 2.968 514.091 3.33067 513.494 4.056C512.939 4.78133 512.662 6.25333 512.662 8.472V40.216C512.662 42.4347 512.961 43.8853 513.558 44.568C514.155 45.208 515.414 45.528 517.334 45.528C521.174 45.528 523.947 44.568 525.654 42.648C527.403 40.6853 528.278 37.912 528.278 34.328C528.278 31.0427 527.403 28.504 525.654 26.712C523.947 24.92 521.11 24.024 517.142 24.024H510.934C510.934 24.024 510.934 23.8533 510.934 23.512C510.934 23.128 510.934 22.936 510.934 22.936H516.438C518.785 22.936 520.598 22.4667 521.878 21.528C523.158 20.5467 524.033 19.2667 524.502 17.688C524.971 16.0667 525.206 14.3387 525.206 12.504C525.206 9.34666 524.587 6.97866 523.35 5.4C522.113 3.77866 520.043 2.968 517.142 2.968Z" fill="white"/>
</svg>
