<svg width="80" height="96" viewBox="0 0 80 96" fill="none" xmlns="http://www.w3.org/2000/svg">
<path d="M40 69.25C39.6667 69.25 39.3611 69.1944 39.0833 69.0833C38.8056 68.9722 38.5278 68.7778 38.25 68.5L21.75 52C21.25 51.5 21 50.9167 21 50.25C21 49.5833 21.25 49 21.75 48.5C22.25 48 22.8333 47.75 23.5 47.75C24.1667 47.75 24.75 48 25.25 48.5L40 63.25L54.75 48.5C55.25 48 55.8333 47.75 56.5 47.75C57.1667 47.75 57.75 48 58.25 48.5C58.75 49 59 49.5833 59 50.25C59 50.9167 58.75 51.5 58.25 52L41.75 68.5C41.4722 68.7778 41.1944 68.9722 40.9167 69.0833C40.6389 69.1944 40.3333 69.25 40 69.25ZM40 90.3333C39.6667 90.3333 39.3611 90.2778 39.0833 90.1667C38.8056 90.0556 38.5278 89.8611 38.25 89.5833L21.75 73.0833C21.25 72.5833 21 72 21 71.3333C21 70.6667 21.25 70.0833 21.75 69.5833C22.25 69.0833 22.8333 68.8333 23.5 68.8333C24.1667 68.8333 24.75 69.0833 25.25 69.5833L40 84.3333L54.75 69.5833C55.25 69.0833 55.8333 68.8333 56.5 68.8333C57.1667 68.8333 57.75 69.0833 58.25 69.5833C58.75 70.0833 59 70.6667 59 71.3333C59 72 58.75 72.5833 58.25 73.0833L41.75 89.5833C41.4722 89.8611 41.1944 90.0556 40.9167 90.1667C40.6389 90.2778 40.3333 90.3333 40 90.3333Z" fill="#333333"/>
<path d="M40 26.5C39.6667 26.5 39.3611 26.4444 39.0833 26.3333C38.8056 26.2222 38.5278 26.0278 38.25 25.75L21.75 9.25C21.25 8.75 21 8.16667 21 7.5C21 6.83333 21.25 6.25 21.75 5.75C22.25 5.25 22.8333 5 23.5 5C24.1667 5 24.75 5.25 25.25 5.75L40 20.5L54.75 5.75C55.25 5.25 55.8333 5 56.5 5C57.1667 5 57.75 5.25 58.25 5.75C58.75 6.25 59 6.83333 59 7.5C59 8.16667 58.75 8.75 58.25 9.25L41.75 25.75C41.4722 26.0278 41.1944 26.2222 40.9167 26.3333C40.6389 26.4444 40.3333 26.5 40 26.5ZM40 47.5833C39.6667 47.5833 39.3611 47.5278 39.0833 47.4167C38.8056 47.3056 38.5278 47.1111 38.25 46.8333L21.75 30.3333C21.25 29.8333 21 29.25 21 28.5833C21 27.9167 21.25 27.3333 21.75 26.8333C22.25 26.3333 22.8333 26.0833 23.5 26.0833C24.1667 26.0833 24.75 26.3333 25.25 26.8333L40 41.5833L54.75 26.8333C55.25 26.3333 55.8333 26.0833 56.5 26.0833C57.1667 26.0833 57.75 26.3333 58.25 26.8333C58.75 27.3333 59 27.9167 59 28.5833C59 29.25 58.75 29.8333 58.25 30.3333L41.75 46.8333C41.4722 47.1111 41.1944 47.3056 40.9167 47.4167C40.6389 47.5278 40.3333 47.5833 40 47.5833Z" fill="#333333"/>
</svg>
