<svg width="20" height="21" viewBox="0 0 20 21" fill="none" xmlns="http://www.w3.org/2000/svg">
<g clip-path="url(#clip0_151_132)">
<path d="M20 11C20 11.1579 19.969 11.3026 19.907 11.4342C19.845 11.5658 19.7364 11.6974 19.5814 11.8289L10.3721 19.6447C10.093 19.8816 9.76744 20 9.39535 20C9.02326 20 8.69768 19.8816 8.41861 19.6447C8.13954 19.4079 8 19.1316 8 18.8158C8 18.5 8.13954 18.2237 8.41861 17.9868L16.6512 11L8.41861 4.01316C8.13954 3.77632 8 3.5 8 3.18421C8 2.86842 8.13954 2.59211 8.41861 2.35526C8.69768 2.11842 9.02326 2 9.39535 2C9.76744 2 10.093 2.11842 10.3721 2.35526L19.5814 10.1711C19.7364 10.3026 19.845 10.4342 19.907 10.5658C19.969 10.6974 20 10.8421 20 11Z" fill="#333333"/>
</g>
<defs>
<clipPath id="clip0_151_132">
<rect width="20" height="20" fill="white" transform="matrix(0 -1 1 0 0 20.5)"/>
</clipPath>
</defs>
</svg>
