<svg width="40" height="40" viewBox="0 0 40 40" fill="none" xmlns="http://www.w3.org/2000/svg">
<path d="M20 30.5C19.6667 30.5 19.3611 30.4444 19.0833 30.3333C18.8056 30.2222 18.5278 30.0278 18.25 29.75L1.75 13.25C1.25 12.75 1 12.1667 1 11.5C1 10.8333 1.25 10.25 1.75 9.75C2.25 9.25 2.83333 9 3.5 9C4.16667 9 4.75 9.25 5.25 9.75L20 24.5L34.75 9.75C35.25 9.25 35.8333 9 36.5 9C37.1667 9 37.75 9.25 38.25 9.75C38.75 10.25 39 10.8333 39 11.5C39 12.1667 38.75 12.75 38.25 13.25L21.75 29.75C21.4722 30.0278 21.1944 30.2222 20.9167 30.3333C20.6389 30.4444 20.3333 30.5 20 30.5Z" fill="#333333"/>
</svg>
